<svg id="图层_1" data-name="图层 1" xmlns="http://www.w3.org/2000/svg" viewBox="0 0 128 128"><defs><style>.cls-1{fill:#0e7687;}.cls-2{fill:#27aae2;}.cls-3{fill:#1088b2;}</style></defs><title>128x128</title><polygon class="cls-1" points="117.09 32.21 76.17 8.73 76.17 8.71 71.51 6.04 71.51 24.26 101.39 41.41 117.09 32.21"/><polygon class="cls-2" points="118.69 34.41 102.82 43.71 102.82 85.69 102.81 85.69 118.69 94.59 118.69 34.41"/><polygon class="cls-3" points="102.81 85.69 71.51 103.65 71.51 121.94 118.69 94.8 118.69 94.59 102.81 85.69"/><polygon class="cls-2" points="52.91 10.11 52.91 26.78 52.91 99.95 52.91 118.14 64.39 126.02 64.39 2.02 52.91 10.11"/><polygon class="cls-1" points="84.1 54.47 68.78 45.69 68.78 30.39 68.78 22.69 68.78 4.48 64.42 1.99 64.39 2 64.39 126.02 68.78 123.5 68.78 117.9 68.78 110.45 68.78 109.04 68.78 105.21 68.78 92.45 68.78 63.28 84.1 72.06 84.1 54.47"/><polygon class="cls-2" points="23.01 97.53 23.01 31.15 15.43 36.48 15.43 92.32 23.01 97.53"/><polygon class="cls-2" points="44.15 112.11 44.15 16.27 33.72 23.61 33.72 27.27 33.72 100.44 33.72 104.92 44.15 112.11"/></svg>