<?xml version="1.0" encoding="utf-8"?>
<!-- Generator: Adobe Illustrator 23.0.2, SVG Export Plug-In . SVG Version: 6.00 Build 0)  -->
<svg version="1.1" id="图层_1" xmlns="http://www.w3.org/2000/svg" xmlns:xlink="http://www.w3.org/1999/xlink" x="0px" y="0px"
	 viewBox="0 0 128 128" style="enable-background:new 0 0 128 128;" xml:space="preserve">
<style type="text/css">
	.st0{fill:#FFFFFF;}
</style>
<title>128x128</title>
<polygon class="st0" points="117.1,32.2 76.2,8.7 76.2,8.7 71.5,6 71.5,24.3 101.4,41.4 "/>
<polygon class="st0" points="118.7,34.4 102.8,43.7 102.8,85.7 102.8,85.7 118.7,94.6 "/>
<polygon class="st0" points="102.8,85.7 71.5,103.7 71.5,121.9 118.7,94.8 118.7,94.6 "/>
<polygon class="st0" points="52.9,10.1 52.9,26.8 52.9,99.9 52.9,118.1 64.4,126 64.4,2 "/>
<polygon class="st0" points="84.1,54.5 68.8,45.7 68.8,30.4 68.8,22.7 68.8,4.5 64.4,2 64.4,2 64.4,126 68.8,123.5 68.8,117.9 
	68.8,110.4 68.8,109 68.8,105.2 68.8,92.4 68.8,63.3 84.1,72.1 "/>
<polygon class="st0" points="23,97.5 23,31.1 15.4,36.5 15.4,92.3 "/>
<polygon class="st0" points="44.2,112.1 44.2,16.3 33.7,23.6 33.7,27.3 33.7,100.4 33.7,104.9 "/>
</svg>
